<?xml version="1.0" encoding="UTF-8"?>
<svg width="23px" height="29px" viewBox="0 0 23 29" version="1.1" xmlns="http://www.w3.org/2000/svg" xmlns:xlink="http://www.w3.org/1999/xlink">
    <!-- Generator: Sketch 45.1 (43504) - http://www.bohemiancoding.com/sketch -->
    <title>Page 1</title>
    <desc>Created with Sketch.</desc>
    <defs></defs>
    <g id="UPDATES" stroke="none" stroke-width="1" fill="none" fill-rule="evenodd">
        <g id="Product" transform="translate(-1321.000000, -29.000000)" fill-rule="nonzero" fill="#161616">
            <g id="Group" transform="translate(1321.000000, 29.000000)">
                <g id="Page-1">
                    <path d="M21.4355746,8.5 L1.56442541,8.5 L3.87286992,27.5 L19.1271301,27.5 L21.4355746,8.5 Z M2.98701327,28.5 L0.435574594,7.5 L22.5644254,7.5 L20.0129867,28.5 L2.98701327,28.5 Z" id="Stroke-1"></path>
                    <path d="M17.5,12.085502 L17.5,6.68788697 C17.5,3.28386961 15.0528579,0.5 12,0.5 C8.94714207,0.5 6.5,3.28386961 6.5,6.68788697 L6.5,12.0852809 C5.91748821,12.2911296 5.5,12.8467309 5.5,13.4996202 C5.5,14.3276779 6.17156242,15 6.99962016,15 C7.82843758,15 8.5,14.3276779 8.5,13.4996202 C8.5,12.8468699 8.08268958,12.2913662 7.5,12.0854125 L7.5,6.68788697 C7.5,3.80952264 9.53017052,1.5 12,1.5 C14.4698295,1.5 16.5,3.80952264 16.5,6.68788697 L16.5,12.0852388 C15.9176509,12.2910538 15.5,12.8466863 15.5,13.4996202 C15.5,14.3276779 16.1717325,15 16.9992401,15 C17.8282675,15 18.5,14.3276779 18.5,13.4996202 C18.5,12.8469645 18.0827048,12.2915272 17.5,12.085502 Z" id="Combined-Shape"></path>
                </g>
            </g>
        </g>
    </g>
</svg>