<?xml version="1.0" encoding="UTF-8"?>
<svg width="22px" height="28px" viewBox="0 0 22 28" version="1.1" xmlns="http://www.w3.org/2000/svg" xmlns:xlink="http://www.w3.org/1999/xlink">
    <!-- Generator: Sketch 45.2 (43514) - http://www.bohemiancoding.com/sketch -->
    <title>Page 1</title>
    <desc>Created with Sketch.</desc>
    <defs></defs>
    <g id="UPDATES" stroke="none" stroke-width="1" fill="none" fill-rule="evenodd">
        <g id="Product" transform="translate(-1321.000000, -29.000000)" fill-rule="nonzero" fill="#161616">
            <g id="Group" transform="translate(1321.000000, 29.000000)">
                <g id="Page-1">
                    <path d="M21,8 L1,8 L3,27 L19,27 L21,8 Z M2,28 L0,7 L22,7 L20,28 L2,28 Z" id="Stroke-1"></path>
                    <path d="M17,11.585502 L17,6.18788697 C17,2.78386961 14.5528579,0 11.5,0 C8.44714207,0 6,2.78386961 6,6.18788697 L6,11.5852809 C5.41748821,11.7911296 5,12.3467309 5,12.9996202 C5,13.8276779 5.67156242,14.5 6.49962016,14.5 C7.32843758,14.5 8,13.8276779 8,12.9996202 C8,12.3468699 7.58268958,11.7913662 7,11.5854125 L7,6.18788697 C7,3.30952264 9.03017052,1 11.5,1 C13.9698295,1 16,3.30952264 16,6.18788697 L16,11.5852388 C15.4176509,11.7910538 15,12.3466863 15,12.9996202 C15,13.8276779 15.6717325,14.5 16.4992401,14.5 C17.3282675,14.5 18,13.8276779 18,12.9996202 C18,12.3469645 17.5827048,11.7915272 17,11.585502 Z" id="Combined-Shape"></path>
                </g>
            </g>
        </g>
    </g>
</svg>